<svg id="visual" viewBox="0 0 900 600" width="900" height="600" xmlns="http://www.w3.org/2000/svg" xmlns:xlink="http://www.w3.org/1999/xlink" version="1.1"><rect x="0" y="0" width="900" height="600" fill="#fbfbfb"></rect><path d="M0 233L13.7 232.7C27.3 232.3 54.7 231.7 82 242C109.3 252.3 136.7 273.7 163.8 286.3C191 299 218 303 245.2 290.3C272.3 277.7 299.7 248.3 327 244.7C354.3 241 381.7 263 409 272.8C436.3 282.7 463.7 280.3 491 273.7C518.3 267 545.7 256 573 258.7C600.3 261.3 627.7 277.7 654.8 274.7C682 271.7 709 249.3 736.2 241.7C763.3 234 790.7 241 818 249.2C845.3 257.3 872.7 266.7 886.3 271.3L900 276L900 601L886.3 601C872.7 601 845.3 601 818 601C790.7 601 763.3 601 736.2 601C709 601 682 601 654.8 601C627.7 601 600.3 601 573 601C545.7 601 518.3 601 491 601C463.7 601 436.3 601 409 601C381.7 601 354.3 601 327 601C299.7 601 272.3 601 245.2 601C218 601 191 601 163.8 601C136.7 601 109.3 601 82 601C54.7 601 27.3 601 13.7 601L0 601Z" fill="#fbfbfb"></path><path d="M0 318L13.7 316.2C27.3 314.3 54.7 310.7 82 315.8C109.3 321 136.7 335 163.8 342.5C191 350 218 351 245.2 345.3C272.3 339.7 299.7 327.3 327 323.2C354.3 319 381.7 323 409 328C436.3 333 463.7 339 491 340.2C518.3 341.3 545.7 337.7 573 339.2C600.3 340.7 627.7 347.3 654.8 338C682 328.7 709 303.3 736.2 289.5C763.3 275.7 790.7 273.3 818 282C845.3 290.7 872.7 310.3 886.3 320.2L900 330L900 601L886.3 601C872.7 601 845.3 601 818 601C790.7 601 763.3 601 736.2 601C709 601 682 601 654.8 601C627.7 601 600.3 601 573 601C545.7 601 518.3 601 491 601C463.7 601 436.3 601 409 601C381.7 601 354.3 601 327 601C299.7 601 272.3 601 245.2 601C218 601 191 601 163.8 601C136.7 601 109.3 601 82 601C54.7 601 27.3 601 13.7 601L0 601Z" fill="#f6e8d5"></path><path d="M0 396L13.7 394.3C27.3 392.7 54.7 389.3 82 385C109.3 380.7 136.7 375.3 163.8 366.5C191 357.7 218 345.3 245.2 350.2C272.3 355 299.7 377 327 376.8C354.3 376.7 381.7 354.3 409 340.5C436.3 326.7 463.7 321.3 491 330C518.3 338.7 545.7 361.3 573 366.5C600.3 371.7 627.7 359.3 654.8 348C682 336.7 709 326.3 736.2 325.7C763.3 325 790.7 334 818 339.5C845.3 345 872.7 347 886.3 348L900 349L900 601L886.3 601C872.7 601 845.3 601 818 601C790.7 601 763.3 601 736.2 601C709 601 682 601 654.8 601C627.7 601 600.3 601 573 601C545.7 601 518.3 601 491 601C463.7 601 436.3 601 409 601C381.7 601 354.3 601 327 601C299.7 601 272.3 601 245.2 601C218 601 191 601 163.8 601C136.7 601 109.3 601 82 601C54.7 601 27.3 601 13.7 601L0 601Z" fill="#eed6af"></path><path d="M0 417L13.7 417.3C27.3 417.7 54.7 418.3 82 422.8C109.3 427.3 136.7 435.7 163.8 433.3C191 431 218 418 245.2 404.7C272.3 391.3 299.7 377.7 327 380.2C354.3 382.7 381.7 401.3 409 406.5C436.3 411.7 463.7 403.3 491 402.5C518.3 401.7 545.7 408.3 573 404.2C600.3 400 627.7 385 654.8 378.3C682 371.7 709 373.3 736.2 380.2C763.3 387 790.7 399 818 402.3C845.3 405.7 872.7 400.3 886.3 397.7L900 395L900 601L886.3 601C872.7 601 845.3 601 818 601C790.7 601 763.3 601 736.2 601C709 601 682 601 654.8 601C627.7 601 600.3 601 573 601C545.7 601 518.3 601 491 601C463.7 601 436.3 601 409 601C381.7 601 354.3 601 327 601C299.7 601 272.3 601 245.2 601C218 601 191 601 163.8 601C136.7 601 109.3 601 82 601C54.7 601 27.3 601 13.7 601L0 601Z" fill="#e5c48a"></path><path d="M0 487L13.7 477.7C27.3 468.3 54.7 449.7 82 443.7C109.3 437.7 136.7 444.3 163.8 450C191 455.7 218 460.3 245.2 455C272.3 449.7 299.7 434.3 327 432.2C354.3 430 381.7 441 409 447.2C436.3 453.3 463.7 454.7 491 450.7C518.3 446.7 545.7 437.3 573 437.3C600.3 437.3 627.7 446.7 654.8 445.7C682 444.7 709 433.3 736.2 428C763.3 422.7 790.7 423.3 818 425.3C845.3 427.3 872.7 430.7 886.3 432.3L900 434L900 601L886.3 601C872.7 601 845.3 601 818 601C790.7 601 763.3 601 736.2 601C709 601 682 601 654.8 601C627.7 601 600.3 601 573 601C545.7 601 518.3 601 491 601C463.7 601 436.3 601 409 601C381.7 601 354.3 601 327 601C299.7 601 272.3 601 245.2 601C218 601 191 601 163.8 601C136.7 601 109.3 601 82 601C54.7 601 27.3 601 13.7 601L0 601Z" fill="#dab365"></path><path d="M0 496L13.7 500.5C27.3 505 54.7 514 82 515.7C109.3 517.3 136.7 511.7 163.8 504.5C191 497.3 218 488.7 245.2 482.8C272.3 477 299.7 474 327 479.2C354.3 484.3 381.7 497.7 409 500C436.3 502.3 463.7 493.7 491 490.7C518.3 487.7 545.7 490.3 573 496.5C600.3 502.7 627.7 512.3 654.8 511C682 509.7 709 497.3 736.2 491.5C763.3 485.7 790.7 486.3 818 486.8C845.3 487.3 872.7 487.7 886.3 487.8L900 488L900 601L886.3 601C872.7 601 845.3 601 818 601C790.7 601 763.3 601 736.2 601C709 601 682 601 654.8 601C627.7 601 600.3 601 573 601C545.7 601 518.3 601 491 601C463.7 601 436.3 601 409 601C381.7 601 354.3 601 327 601C299.7 601 272.3 601 245.2 601C218 601 191 601 163.8 601C136.7 601 109.3 601 82 601C54.7 601 27.3 601 13.7 601L0 601Z" fill="#cea23e"></path><path d="M0 531L13.7 532.8C27.3 534.7 54.7 538.3 82 545.3C109.3 552.3 136.7 562.7 163.8 558.7C191 554.7 218 536.3 245.2 534.8C272.3 533.3 299.7 548.7 327 548.3C354.3 548 381.7 532 409 532.8C436.3 533.7 463.7 551.3 491 558.3C518.3 565.3 545.7 561.7 573 553.3C600.3 545 627.7 532 654.8 525C682 518 709 517 736.2 517C763.3 517 790.7 518 818 524C845.3 530 872.7 541 886.3 546.5L900 552L900 601L886.3 601C872.7 601 845.3 601 818 601C790.7 601 763.3 601 736.2 601C709 601 682 601 654.8 601C627.7 601 600.3 601 573 601C545.7 601 518.3 601 491 601C463.7 601 436.3 601 409 601C381.7 601 354.3 601 327 601C299.7 601 272.3 601 245.2 601C218 601 191 601 163.8 601C136.7 601 109.3 601 82 601C54.7 601 27.3 601 13.7 601L0 601Z" fill="#c09102"></path></svg>